<svg xmlns="http://www.w3.org/2000/svg" viewBox="0 0 500 500" role="img" aria-labelledby="title desc">
  <title id="title">Gatinho crocheteiro</title>
  <desc id="desc">Ilustração de um gatinho branco crocheteando, dentro de uma bola roxa com fio lilás.</desc>

  <defs>
    <linearGradient id="gradRoxo" x1="0" x2="1" y1="0" y2="1">
      <stop offset="0%" stop-color="#AE8CCC"/>
      <stop offset="100%" stop-color="#8D6DB3"/>
    </linearGradient>
    <linearGradient id="gradClaro" x1="0" x2="1">
      <stop offset="0%" stop-color="#EDE3F0"/>
      <stop offset="100%" stop-color="#DCCDEB"/>
    </linearGradient>
  </defs>

  <circle cx="250" cy="250" r="214" fill="url(#gradRoxo)"/>
  <circle cx="382" cy="104" r="80" fill="url(#gradClaro)"/>

  <g>
    <path d="M177 167 L145 99 L208 127 Z" fill="#F8F5F6"/>
    <path d="M323 167 L355 99 L292 127 Z" fill="#F8F5F6"/>

    <ellipse cx="250" cy="250" rx="107" ry="100" fill="#F8F5F6"/>

    <circle cx="214" cy="213" r="8" fill="#332741"/>
    <circle cx="286" cy="213" r="8" fill="#332741"/>

    <g fill="none" stroke="#332741" stroke-width="4.5" stroke-linecap="round">
      <path d="M178 218 L138 208"/>
      <path d="M178 234 L133 232"/>
      <path d="M178 250 L140 260"/>
      <path d="M322 218 L362 208"/>
      <path d="M322 234 L367 232"/>
      <path d="M322 250 L360 260"/>
    </g>

    <path d="M224 262 C236 270 264 270 276 262" fill="none" stroke="#332741" stroke-width="6" stroke-linecap="round"/>

    <path d="M200 290 C168 294 151 314 156 332 C160 348 176 356 192 349 L230 328 L222 287 Z" fill="#F8F5F6"/>
    <path d="M300 290 C332 294 349 314 344 332 C340 348 324 356 308 349 L270 328 L278 287 Z" fill="#F8F5F6"/>

    <path d="M184 328 L172 370 L208 365 L220 332 Z" fill="#F8F5F6"/>
    <path d="M316 328 L328 370 L292 365 L280 332 Z" fill="#F8F5F6"/>

    <g transform="translate(175 302)">
      <path d="M26 12 C12 0 18 -14 35 -11 C54 -8 64 9 64 24 C64 39 52 53 36 62 C24 68 11 66 5 56 C-2 46 1 28 26 12 Z" fill="#D7C9E8"/>
      <g fill="none" stroke="#B69FDB" stroke-width="6" stroke-linecap="round">
        <path d="M16 20 C30 30 47 31 60 20"/>
        <path d="M14 38 C29 48 47 48 63 38"/>
        <path d="M14 57 C29 67 46 67 63 57"/>
      </g>
      <path d="M32 8 L41 64 M50 6 L56 66 M66 12 L60 68" fill="none" stroke="#B69FDB" stroke-width="4" stroke-linecap="round" opacity="0.8"/>
    </g>

    <g>
      <path d="M228 325 L272 292" fill="none" stroke="#332741" stroke-width="7" stroke-linecap="round"/>
      <path d="M272 292 L287 276" fill="none" stroke="#332741" stroke-width="7" stroke-linecap="round"/>
      <path d="M228 325 L214 340" fill="none" stroke="#332741" stroke-width="7" stroke-linecap="round"/>
      <path d="M272 292 L275 252" fill="none" stroke="#D8B057" stroke-width="6" stroke-linecap="round"/>
    </g>

    <g>
      <circle cx="364" cy="358" r="42" fill="#F0E8F6"/>
      <path d="M336 368 C346 336 379 334 394 359 C402 373 392 394 368 397 C347 400 337 385 336 368 Z" fill="none" stroke="#B69FDB" stroke-width="5"/>
      <path d="M347 388 C321 418 313 419 296 410 C284 403 278 386 266 380" fill="none" stroke="#F0E8F6" stroke-width="6" stroke-linecap="round"/>
    </g>
  </g>
</svg>
